<?xml version="1.0" encoding="utf-8"?>
<!-- Generator: Adobe Illustrator 16.0.0, SVG Export Plug-In . SVG Version: 6.00 Build 0)  -->
<!DOCTYPE svg PUBLIC "-//W3C//DTD SVG 1.1//EN" "http://www.w3.org/Graphics/SVG/1.1/DTD/svg11.dtd">
<svg version="1.1" xmlns="http://www.w3.org/2000/svg" xmlns:xlink="http://www.w3.org/1999/xlink" x="0px" y="0px" width="50px"
	 height="50px" viewBox="0 0 50 50" enable-background="new 0 0 50 50" xml:space="preserve">
<g id="Layer_1" display="none">
	<rect display="inline" fill="#404040" width="50" height="50"/>
</g>
<g id="Layer_2">
</g>
<g id="Layer_3">
	<g>
		<path fill="#D2D98C" d="M25.59,19.969c1.37,4.01-0.521,19.667-0.521,19.667l-0.938,1c0,0,1.438-12.375,0.062-17.313
			C23.516,20.884,25.181,18.772,25.59,19.969z"/>
		
			<ellipse transform="matrix(0.9972 -0.0754 0.0754 0.9972 -0.7628 1.7348)" fill="#D2D98C" cx="22.59" cy="10.969" rx="1.441" ry="3.863"/>
		<path fill="#D2D98C" d="M26.132,11.229c0.208,0.438-1.448,3.667-2.5,3.906c-1.338,0.304-5.335-1.125-6.188-1.979
			c-0.312-0.313,0.521-2.646,0.521-2.646l-0.521,0.062c0,0-0.969,2.344-0.604,2.875s4.114,2.317,4.417,3.812
			c1.812,8.938-6.083,21.583-6.083,21.583l0.562,0.438c0,0,7.229-13.334,8.896-13.334l1.396-2.25
			c0.725-4.377-0.816-7.514-0.979-8.021c0,0,2.104-2.917,2.083-4.604c-0.007-0.542-7.813-2.167-7.813-2.167l-0.062,0.312
			C19.257,9.219,25.924,10.792,26.132,11.229z"/>
		<line fill="none" stroke="#D2D98C" stroke-width="0.3" stroke-miterlimit="10" x1="16.341" y1="7.719" x2="33.257" y2="22.385"/>
		<polygon fill="#D2D98C" points="25.194,40.011 29.027,41.762 27.11,42.095 24.444,40.823 		"/>
		<polygon fill="#D2D98C" points="15.549,39.636 14.382,42.886 13.34,42.803 14.924,39.303 		"/>
		<path fill="#D2D98C" d="M17.34,8.114l1.417,1.292c0,0,0.542-0.708,0-1.208S17.34,8.114,17.34,8.114z"/>
		<path fill="#D2D98C" d="M18.308,9.999l-1.408-1.301c0,0-0.547,0.704-0.008,1.208S18.308,9.999,18.308,9.999z"/>
		<path fill="#D2D98C" d="M35.128,22.9c0.911,0.146,1.595,0.519,1.528,0.834c-0.066,0.312-0.859,0.449-1.771,0.302
			c-0.91-0.146-1.595-0.519-1.526-0.833C33.425,22.889,34.217,22.753,35.128,22.9z"/>
	</g>
</g>
</svg>
