<?xml version="1.0" encoding="utf-8"?>
<!-- Generator: Adobe Illustrator 16.0.0, SVG Export Plug-In . SVG Version: 6.00 Build 0)  -->
<!DOCTYPE svg PUBLIC "-//W3C//DTD SVG 1.1//EN" "http://www.w3.org/Graphics/SVG/1.1/DTD/svg11.dtd">
<svg version="1.1" xmlns="http://www.w3.org/2000/svg" xmlns:xlink="http://www.w3.org/1999/xlink" x="0px" y="0px" width="50px"
	 height="50px" viewBox="0 0 50 50" enable-background="new 0 0 50 50" xml:space="preserve">
<g id="Layer_1" display="none">
	<rect display="inline" fill="#404040" width="50" height="50"/>
</g>
<g id="Layer_2">
	<g>
		<ellipse fill="#D2D98C" cx="19.025" cy="11.449" rx="1.441" ry="3.864"/>
		<path fill="#D2D98C" d="M12.471,40.998c0,0,4.124-22.008,5.197-23.938l2.583,1.333c0,0,1.146,7.812,5.812,22.312h-0.882
			c0,0-2.993-11.875-4.91-13.541c0,0-1.167-1.667-3,0.333c-2.789,3.042-4,13.5-4,13.5H12.471z"/>
		<path fill="#D2D98C" d="M9.876,10.956h1.083c6.625,5.166,10.646,6,10.167,6.875C20.647,18.706,9.876,10.956,9.876,10.956z"/>
		<line fill="none" stroke="#D2D98C" stroke-width="0.3" stroke-miterlimit="10" x1="8.813" y1="10.456" x2="38.751" y2="10.456"/>
		<path fill="#D2D98C" d="M9.563,9.998h2.188c0,0-0.938-0.896-1.438-0.854C9.813,9.185,9.563,9.998,9.563,9.998z"/>
		<polygon fill="#D2D98C" points="25.397,41.289 26.355,41.289 28.563,42.414 27.48,42.414 		"/>
		<polygon fill="#D2D98C" points="13.22,41.331 12.105,41.331 9.772,41.998 11.272,41.998 		"/>
		<path fill="#D2D98C" d="M40.805,11.683c0.41,0.826,0.505,1.6,0.211,1.728c-0.294,0.129-0.866-0.438-1.276-1.265
			c-0.411-0.826-0.505-1.6-0.21-1.728C39.823,10.29,40.395,10.855,40.805,11.683z"/>
	</g>
</g>
<g id="Layer_3">
</g>
</svg>
